<svg xmlns="http://www.w3.org/2000/svg" viewBox="0 0 1200 150"><defs><linearGradient id="ice" x1="0" y1="0" x2="0" y2="1"><stop stop-color="#effcff"/><stop offset=".38" stop-color="#bfefff"/><stop offset="1" stop-color="#5ba7c8"/></linearGradient><filter id="s"><feDropShadow dx="0" dy="6" stdDeviation="5" flood-color="#17384c" flood-opacity=".45"/></filter></defs><g filter="url(#s)"><path d="M0 5h1200v30c-70 18-140 12-210 4-90-10-150 12-245 6-100-7-154-24-255-10-108 15-188-5-274 6C130 52 60 48 0 36z" fill="url(#ice)" opacity=".95"/><g fill="url(#ice)" stroke="#dff9ff" stroke-width="3"><path d="M95 27l34 0-17 72z"/><path d="M210 24l48 3-26 112z"/><path d="M350 29l34-2-12 68z"/><path d="M475 20l62 6-32 123z"/><path d="M640 25l35 0-18 79z"/><path d="M765 21l55 4-22 112z"/><path d="M930 27l42-1-18 83z"/><path d="M1080 24l51 4-25 101z"/></g><path d="M4 12h1192" stroke="#f8ffff" stroke-width="8" opacity=".7"/></g></svg>
