<svg xmlns="http://www.w3.org/2000/svg" viewBox="0 0 260 420"><defs><filter id="s"><feDropShadow dx="4" dy="5" stdDeviation="4" flood-opacity=".4"/></filter></defs><g filter="url(#s)"><path d="M78 0c22 100 5 196 34 292" stroke="#6d4a29" stroke-width="13" fill="none"/><path d="M151 0c-10 93 16 178-6 274" stroke="#49311e" stroke-width="10" fill="none"/><circle cx="99" cy="158" r="34" fill="#8a6c3b" stroke="#d6c082" stroke-width="6"/><path d="M82 160l17-25 18 25-18 28z" fill="#355d77" stroke="#d6c082" stroke-width="4"/><path d="M130 247c-28 30-18 73 4 112 29-39 43-78 19-111z" fill="#e6d5ac" stroke="#6f5a39" stroke-width="5"/><path d="M54 270c-25 24-23 58-7 96 30-30 38-62 24-94z" fill="#d8c49a" stroke="#6f5a39" stroke-width="5"/><path d="M169 282c-22 22-20 54-5 88 26-28 34-57 21-87z" fill="#eadbb5" stroke="#6f5a39" stroke-width="5"/></g></svg>
